<svg width="24" height="25" viewBox="0 0 24 25" fill="none" xmlns="http://www.w3.org/2000/svg">
<path fill-rule="evenodd" clip-rule="evenodd" d="M3.46983 13.0301C3.32938 12.8895 3.25049 12.6988 3.25049 12.5001C3.25049 12.3013 3.32938 12.1107 3.46983 11.9701L9.46983 5.97009C9.53849 5.8964 9.62129 5.8373 9.71329 5.79631C9.80529 5.75532 9.9046 5.73328 10.0053 5.7315C10.106 5.72972 10.206 5.74825 10.2994 5.78597C10.3928 5.82369 10.4776 5.87983 10.5489 5.95105C10.6201 6.02227 10.6762 6.10711 10.714 6.20049C10.7517 6.29388 10.7702 6.39391 10.7684 6.49461C10.7666 6.59532 10.7446 6.69463 10.7036 6.78663C10.6626 6.87863 10.6035 6.96143 10.5298 7.03009L5.80983 11.7501H19.9998C20.1987 11.7501 20.3895 11.8291 20.5302 11.9698C20.6708 12.1104 20.7498 12.3012 20.7498 12.5001C20.7498 12.699 20.6708 12.8898 20.5302 13.0304C20.3895 13.1711 20.1987 13.2501 19.9998 13.2501H5.80983L10.5298 17.9701C10.6035 18.0388 10.6626 18.1216 10.7036 18.2136C10.7446 18.3056 10.7666 18.4049 10.7684 18.5056C10.7702 18.6063 10.7517 18.7063 10.714 18.7997C10.6762 18.8931 10.6201 18.9779 10.5489 19.0491C10.4776 19.1203 10.3928 19.1765 10.2994 19.2142C10.206 19.2519 10.106 19.2705 10.0053 19.2687C9.9046 19.2669 9.80529 19.2449 9.71329 19.2039C9.62129 19.1629 9.53849 19.1038 9.46983 19.0301L3.46983 13.0301Z" fill="currentColor"/>
</svg>
