<svg width="14" height="14" viewBox="0 0 14 14" fill="none" xmlns="http://www.w3.org/2000/svg">
<path d="M5.24988 3.96893H6.40457V9.25487C6.40457 9.32362 6.46082 9.37987 6.52957 9.37987H7.46707C7.53582 9.37987 7.59207 9.32362 7.59207 9.25487V3.96893H8.74988C8.85457 3.96893 8.91238 3.84862 8.84832 3.76737L7.09832 1.55174C7.08662 1.5368 7.07168 1.52472 7.05463 1.51641C7.03757 1.5081 7.01885 1.50378 6.99988 1.50378C6.98091 1.50378 6.96218 1.5081 6.94513 1.51641C6.92807 1.52472 6.91313 1.5368 6.90144 1.55174L5.15144 3.76581C5.08738 3.84862 5.14519 3.96893 5.24988 3.96893ZM12.7186 8.78612H11.7811C11.7124 8.78612 11.6561 8.84237 11.6561 8.91112V11.3174H2.34363V8.91112C2.34363 8.84237 2.28738 8.78612 2.21863 8.78612H1.28113C1.21238 8.78612 1.15613 8.84237 1.15613 8.91112V12.0049C1.15613 12.2814 1.37957 12.5049 1.65613 12.5049H12.3436C12.6202 12.5049 12.8436 12.2814 12.8436 12.0049V8.91112C12.8436 8.84237 12.7874 8.78612 12.7186 8.78612Z" fill="currentColor" />
</svg>
