<svg xmlns="http://www.w3.org/2000/svg" version="1.1" xmlns:xlink="http://www.w3.org/1999/xlink" width="64" height="64"><svg xmlns="http://www.w3.org/2000/svg" width="64" height="64" viewBox="0 0 64 64" aria-labelledby="titleDesc" role="img">
  <g transform="rotate(30,32,32)">
    <path d="M32 4c-6 6-10 16-10 26 0 12 10 22 10 22s10-10 10-22c0-10-4-20-10-26z" fill="#ECEFF1" stroke="#263238" stroke-width="2" stroke-linejoin="round"></path>
    <circle cx="32" cy="20" r="5" fill="#4FC3F7" stroke="#0288D1" stroke-width="2"></circle>
    <path d="M22 34l-8 8v6l10-6z" fill="#E53935" stroke="#B71C1C" stroke-width="2" stroke-linejoin="round"></path>
    <path d="M42 34l8 8v6l-10-6z" fill="#E53935" stroke="#B71C1C" stroke-width="2" stroke-linejoin="round"></path>
    <path d="M28 52c0 4 2 8 4 8s4-4 4-8c0-2-2-6-4-6s-4 4-4 6z" fill="#FFB300" stroke="#F57C00" stroke-width="2" stroke-linejoin="round"></path>
  </g>
</svg><style>@media (prefers-color-scheme: light) { :root { filter: none; } }
@media (prefers-color-scheme: dark) { :root { filter: none; } }
</style></svg>