<svg xmlns="http://www.w3.org/2000/svg">
  <symbol id="icon-logo" viewBox="0 0 160 20" fill="none" xmlns="http://www.w3.org/2000/svg">
    <path d="M29.2408 0.331491V11.7403C29.2408 14.4291 28.5054 16.4825 27.0345 17.9006C25.5636 19.3002 23.4783 20 20.7786 20C19.438 20 18.2371 19.8066 17.1758 19.4199C16.1332 19.0331 15.2767 18.4899 14.6064 17.7901C13.9176 18.4899 13.0518 19.0331 12.0091 19.4199C10.9665 19.8066 9.78418 20 8.46224 20C5.76252 20 3.67721 19.3002 2.20633 17.9006C0.735443 16.4825 0 14.4291 0 11.7403V0.331491H4.52437V11.6022C4.52437 13.1676 4.8502 14.3278 5.50186 15.0829C6.15351 15.8195 7.12169 16.1878 8.40639 16.1878C11.0316 16.1878 12.3443 14.6593 12.3443 11.6022V0.331491H16.8686V11.6022C16.8686 14.6593 18.1906 16.1878 20.8344 16.1878C23.4038 16.1878 24.6885 14.6593 24.6885 11.6022V0.331491H29.2408Z" fill="currentColor"/>
    <path d="M97.6867 0.331491V11.7403C97.6867 14.4291 96.9513 16.4825 95.4804 17.9006C94.0095 19.3002 91.9242 20 89.2245 20C87.8839 20 86.683 19.8066 85.6217 19.4199C84.5791 19.0331 83.7226 18.4899 83.0524 17.7901C82.3635 18.4899 81.4977 19.0331 80.455 19.4199C79.4124 19.8066 78.2301 20 76.9082 20C74.2084 20 72.1231 19.3002 70.6522 17.9006C69.1814 16.4825 68.4459 14.4291 68.4459 11.7403V0.331491H72.9703V11.6022C72.9703 13.1676 73.2961 14.3278 73.9478 15.0829C74.5994 15.8195 75.5676 16.1878 76.8523 16.1878C79.4775 16.1878 80.7902 14.6593 80.7902 11.6022V0.331491H85.3145V11.6022C85.3145 14.6593 86.6365 16.1878 89.2803 16.1878C91.8497 16.1878 93.1344 14.6593 93.1344 11.6022V0.331491H97.6867Z" fill="currentColor"/>
    <path d="M110.957 0C112.763 0 114.337 0.349908 115.677 1.04972C117.018 1.74954 118.061 2.78085 118.805 4.14365C119.55 5.50644 119.922 7.1547 119.922 9.0884V19.6685H115.398V15.0276H106.461V19.6685H101.992V9.0884C101.992 7.1547 102.365 5.50644 103.11 4.14365C103.854 2.78085 104.897 1.74954 106.238 1.04972C107.578 0.349908 109.151 0 110.957 0ZM115.398 11.4365V8.67403C115.398 7.07182 114.998 5.86556 114.197 5.05525C113.396 4.22652 112.307 3.81216 110.93 3.81216C109.533 3.81216 108.435 4.22652 107.634 5.05525C106.852 5.86556 106.461 7.07182 106.461 8.67403V11.4365H115.398Z" fill="currentColor"/>
    <path d="M142.638 0.331491L134.176 19.6685H129.708L121.273 0.331491H126.161L132.109 14.1436L138.142 0.331491H142.638Z" fill="currentColor"/>
    <path d="M160 18.011C159.069 18.6372 157.896 19.1252 156.481 19.4751C155.085 19.825 153.595 20 152.013 20C150.039 20 148.363 19.7606 146.985 19.2818C145.608 18.7845 144.565 18.1031 143.857 17.2376C143.15 16.3536 142.796 15.3499 142.796 14.2265C142.796 13.1952 143.085 12.2836 143.662 11.4917C144.239 10.6998 145.03 10.1105 146.036 9.72376C145.273 9.3186 144.677 8.76611 144.248 8.0663C143.839 7.36648 143.634 6.58379 143.634 5.71823C143.634 4.66851 143.96 3.71087 144.612 2.8453C145.263 1.97974 146.25 1.28913 147.572 0.773481C148.894 0.257827 150.514 0 152.431 0C153.698 0 154.936 0.128913 156.146 0.38674C157.356 0.62615 158.408 0.957641 159.302 1.38121L158.045 4.80663C156.332 4.01473 154.517 3.61878 152.599 3.61878C151.147 3.61878 150.048 3.83978 149.303 4.28177C148.577 4.70534 148.214 5.28545 148.214 6.0221C148.214 6.7035 148.456 7.22836 148.94 7.59668C149.443 7.94659 150.197 8.12155 151.203 8.12155H156.537V11.6575H150.923C149.788 11.6575 148.912 11.8508 148.298 12.2376C147.684 12.6243 147.376 13.186 147.376 13.9227C147.376 14.6961 147.767 15.3039 148.549 15.7459C149.35 16.1694 150.57 16.3812 152.208 16.3812C153.362 16.3812 154.517 16.2339 155.671 15.9392C156.825 15.6262 157.803 15.1934 158.604 14.6409L160 18.011Z" fill="currentColor"/>
    <path d="M56.8231 11.2023H33.5484V7.82997H56.8231L52.7019 3.67492L55.0671 1.29033L63.2258 9.51613L55.0671 17.7419L52.7019 15.3574L56.8231 11.2023Z" fill="#6D31EE"/>
  </symbol>
  <symbol id="icon-search" viewBox="0 0 24 24" fill="none" xmlns="http://www.w3.org/2000/svg">
    <path d="M11 19C15.4183 19 19 15.4183 19 11C19 6.58172 15.4183 3 11 3C6.58172 3 3 6.58172 3 11C3 15.4183 6.58172 19 11 19Z" stroke="currentColor" stroke-width="2" stroke-linecap="round" stroke-linejoin="round"/>
    <path d="M21 21L16.65 16.65" stroke="currentColor" stroke-width="2" stroke-linecap="round" stroke-linejoin="round"/>
  </symbol>
  <symbol id="icon-arrow" viewBox="0 0 28 12" fill="none" xmlns="http://www.w3.org/2000/svg">
    <path d="M24.3536 6.35355C24.5488 6.15829 24.5488 5.84171 24.3536 5.64645L21.1716 2.46447C20.9763 2.2692 20.6597 2.2692 20.4645 2.46447C20.2692 2.65973 20.2692 2.97631 20.4645 3.17157L23.2929 6L20.4645 8.82843C20.2692 9.02369 20.2692 9.34027 20.4645 9.53553C20.6597 9.7308 20.9763 9.7308 21.1716 9.53553L24.3536 6.35355ZM4 6.5H24V5.5H4V6.5Z" fill="currentColor"/>
  </symbol>
  <symbol id="icon-18" viewBox="0 0 30 30" fill="none" xmlns="http://www.w3.org/2000/svg">
    <rect x="0.5" y="0.5" width="29" height="29" rx="14.5" stroke="#A1A6B4"/>
    <path d="M8.68945 20H7.74023V13.8945C7.74023 13.3867 7.75586 12.9062 7.78711 12.4531C7.70508 12.5352 7.61328 12.6211 7.51172 12.7109C7.41016 12.8008 6.94531 13.1816 6.11719 13.8535L5.60156 13.1855L7.86914 11.4336H8.68945V20ZM14.7891 11.3105C15.5703 11.3105 16.1895 11.4922 16.6465 11.8555C17.1035 12.2188 17.332 12.7207 17.332 13.3613C17.332 13.7832 17.2012 14.168 16.9395 14.5156C16.6777 14.8633 16.2598 15.1797 15.6855 15.4648C16.3809 15.7969 16.875 16.1465 17.168 16.5137C17.4609 16.877 17.6074 17.2988 17.6074 17.7793C17.6074 18.4902 17.3594 19.0586 16.8633 19.4844C16.3672 19.9062 15.6875 20.1172 14.8242 20.1172C13.9102 20.1172 13.207 19.918 12.7148 19.5195C12.2227 19.1172 11.9766 18.5488 11.9766 17.8145C11.9766 16.834 12.5742 16.0703 13.7695 15.5234C13.2305 15.2188 12.8438 14.8906 12.6094 14.5391C12.375 14.1836 12.2578 13.7871 12.2578 13.3496C12.2578 12.7285 12.4863 12.2344 12.9434 11.8672C13.4043 11.4961 14.0195 11.3105 14.7891 11.3105ZM12.9375 17.8379C12.9375 18.3066 13.0996 18.6719 13.4238 18.9336C13.752 19.1953 14.2109 19.3262 14.8008 19.3262C15.3828 19.3262 15.8359 19.1895 16.1602 18.916C16.4844 18.6426 16.6465 18.2676 16.6465 17.791C16.6465 17.4121 16.4941 17.0762 16.1895 16.7832C15.8848 16.4863 15.3535 16.1992 14.5957 15.9219C14.0137 16.1719 13.5918 16.4492 13.3301 16.7539C13.0684 17.0547 12.9375 17.416 12.9375 17.8379ZM14.7773 12.1016C14.2891 12.1016 13.9062 12.2188 13.6289 12.4531C13.3516 12.6875 13.2129 13 13.2129 13.3906C13.2129 13.75 13.3281 14.0586 13.5586 14.3164C13.7891 14.5742 14.2148 14.832 14.8359 15.0898C15.3945 14.8555 15.7891 14.6035 16.0195 14.334C16.2539 14.0645 16.3711 13.75 16.3711 13.3906C16.3711 12.9961 16.2285 12.6836 15.9434 12.4531C15.6621 12.2188 15.2734 12.1016 14.7773 12.1016ZM22.0605 15.3652H24.4746V16.1738H22.0605V18.6699H21.2461V16.1738H18.8438V15.3652H21.2461V12.8574H22.0605V15.3652Z" fill="currentColor"/>
  </symbol>
  <symbol id="icon-country-rus" viewBox="0 0 16 12" fill="none" xmlns="http://www.w3.org/2000/svg">
    <path fill-rule="evenodd" clip-rule="evenodd" d="M0 0H16V12H0V0Z" fill="white"/>
    <path fill-rule="evenodd" clip-rule="evenodd" d="M0 4H16V12H0V4Z" fill="#0039A6"/>
    <path fill-rule="evenodd" clip-rule="evenodd" d="M0 8H16V12H0V8Z" fill="#D52B1E"/>
  </symbol>
  <symbol id="icon-country-gb" viewBox="0 0 16 12" fill="none" xmlns="http://www.w3.org/2000/svg">
    <g clip-path="url(#clip0_177428_350)">
    <path d="M-4 0H19.8217V12H-4V0Z" fill="#0039A6"/>
    <path d="M-4 0V1.34063L17.158 12H19.8217V10.6594L-1.33635 0H-4ZM19.8217 0V1.34063L-1.33635 12H-4V10.6594L17.158 0H19.8217Z" fill="white"/>
    <path d="M5.92646 0V12H9.89519V0H5.92646ZM-4 4.00078V7.99922H19.8217V4.00078H-4Z" fill="white"/>
    <path d="M-4 4.8V7.2H19.8217V4.8H-4ZM6.71974 0V12H9.10191V0H6.71974ZM-4 12L3.93977 7.99922H5.71709L-2.22501 12H-4ZM-4 0L3.93977 4.00078H2.16478L-4 0.895313V0ZM10.1069 4.00078L18.0467 0H19.8217L11.8819 4.00078H10.1069ZM19.8217 12L11.8819 7.99922H13.6569L19.8217 11.1047V12Z" fill="#D52B1E"/>
    </g>
    <defs>
    <clipPath id="clip0_177428_350">
    <rect width="16" height="12" fill="white"/>
    </clipPath>
    </defs>
  </symbol>
  <symbol id="icon-new" viewBox="0 0 160 160" fill="none" xmlns="http://www.w3.org/2000/svg">
    <path d="M151.975 89.6127C156.622 84.0465 156.622 75.9535 151.975 70.3873L146.225 63.4986C143.682 60.4529 142.45 56.5239 142.797 52.5716L143.592 43.5358C144.244 36.1224 139.362 29.3519 132.122 27.629L124.848 25.8981C120.783 24.9308 117.306 22.3119 115.254 18.6722L111.455 11.933C107.645 5.17474 99.3097 2.43713 92.2345 5.62002L86.1539 8.35543C82.2402 10.116 77.7598 10.116 73.8461 8.35543L67.7488 5.61247C60.6805 2.43274 52.3537 5.1615 48.5383 11.9079L44.7596 18.5893C42.6991 22.2327 39.21 24.8495 35.1354 25.8073L27.918 27.5038C20.6595 29.21 15.7563 35.9887 16.4078 43.4165L17.2057 52.5128C17.5514 56.4548 16.3255 60.3737 13.7949 63.4159L7.99347 70.3904C3.36298 75.9571 3.37009 84.037 8.01036 89.5956L13.7767 96.503C16.3185 99.5478 17.5509 103.475 17.2043 107.426L16.4046 116.543C15.7545 123.955 20.6362 130.724 27.8748 132.446L35.1634 134.181C39.2214 135.147 42.6941 137.758 44.7475 141.389L48.5209 148.061C52.3436 154.821 60.6929 157.545 67.7664 154.341L73.8322 151.594C77.7536 149.818 82.249 149.812 86.1749 151.578L92.2513 154.311C99.3195 157.491 107.646 154.762 111.462 148.016L115.252 141.313C117.306 137.682 120.779 135.07 124.837 134.105L132.122 132.371C139.362 130.648 144.244 123.878 143.592 116.464L142.797 107.428C142.45 103.476 143.682 99.5471 146.225 96.5014L151.975 89.6127Z" fill="#F0D288"/>
    <path d="M55.9564 118.705L41.1423 100.411L44.3404 97.8209L46.0538 99.9368C45.9765 97.1772 47.0482 94.8982 49.2691 93.0998C51.6381 91.1814 54.0782 90.5922 56.5895 91.3322C58.1331 91.7852 59.8093 93.1285 61.6179 95.362L70.792 106.691L67.5939 109.281L58.4912 98.0399C57.2775 96.5411 56.0919 95.6522 54.9343 95.3731C53.5393 95.043 52.1755 95.4174 50.843 96.4965C49.4809 97.5995 48.7808 98.945 48.7428 100.533C48.6874 102.281 49.5759 104.286 51.4083 106.549L59.1545 116.115L55.9564 118.705Z" fill="#292E39"/>
    <path d="M85.5394 84.6034L89.3825 83.8999C89.7125 85.579 89.7547 87.175 89.5088 88.6878C89.0347 91.5534 87.5983 93.9574 85.1997 95.8997C82.7124 97.9139 79.923 98.8589 76.8316 98.7347C73.746 98.5571 70.9181 96.8814 68.3479 93.7075C66.0871 90.9157 65.0185 87.9613 65.1421 84.8444C65.2715 81.6741 66.6983 78.9859 69.4226 76.7798C72.5022 74.286 75.7311 73.5203 79.1091 74.4829C81.7807 75.2391 84.2144 77.0637 86.4101 79.9569L72.0632 91.5748C73.5921 93.4023 75.3832 94.4335 77.4365 94.6684C79.4899 94.9033 81.3309 94.3613 82.9596 93.0425C84.4105 91.8675 85.3121 90.4076 85.6642 88.6627C85.9222 87.2859 85.8806 85.9328 85.5394 84.6034ZM70.1435 88.7501L80.9814 79.9737C79.5488 78.7495 77.984 78.1189 76.2871 78.082C74.596 77.9916 73.0693 78.498 71.7072 79.601C70.3747 80.6801 69.559 82.0948 69.2604 83.8451C68.9675 85.542 69.2619 87.177 70.1435 88.7501Z" fill="#292E39"/>
    <path d="M80.7261 68.3563L84.2795 65.4788L99.8094 73.4857L94.3749 54.9681L111.314 64.1698L106.755 47.2786L110.308 44.4011L117.008 71.383L100.256 62.3216L105.637 80.591L80.7261 68.3563Z" fill="#292E39"/>
  </symbol>
  <!-- <symbol id="icon-yandex" viewBox="0 0 21 20" fill="none" xmlns="http://www.w3.org/2000/svg">
    <g clip-path="url(#clip0_177428_385)">
    <path class="icon-yandex-bc" d="M10.5 20C16.0228 20 20.5 15.5228 20.5 9.99998C20.5 4.47714 16.0228 0 10.5 0C4.97724 0 0.5 4.47714 0.5 9.99998C0.5 15.5228 4.97724 20 10.5 20Z" fill="currentColor"/>
    <path class="icon-yandex-text" d="M17.4385 4.54391L13.7295 3.17676L8.3957 10.8637L8.92677 7.3751L6.02058 5.68219L0.67395 12.1141C0.924269 13.3858 1.4102 14.5718 2.08387 15.6239L5.27373 11.7711L4.09993 16.2962L7.73707 17.6271L13.1408 9.8464L11.9569 14.2958L14.9033 16.0179L20.558 10.3174C20.5592 10.2534 20.5599 10.1889 20.5599 10.1246C20.5599 8.78258 20.3017 7.50132 19.8329 6.32896L16.5482 9.6538L17.4385 4.54391Z" fill="currentColor"/>
    </g>
    <defs>
    <clipPath id="clip0_177428_385">
    <rect x="0.5" width="20" height="20" rx="10" fill="white"/>
    </clipPath>
    </defs>
  </symbol> -->
  <symbol id="icon-spiral-vert" viewBox="0 0 162 292" fill="none" xmlns="http://www.w3.org/2000/svg">
    <path opacity="0.5" d="M103.536 1C46.9066 1 1 15.5154 1 33.4211C1 51.3268 46.9066 65.8423 103.536 65.8423C135.272 65.8423 161 59.6977 161 52.118C161 44.5383 135.272 38.3937 103.536 38.3937C46.9066 38.3937 1 52.9091 1 70.8148C1 88.7206 46.9066 103.236 103.536 103.236C135.272 103.236 161 97.0916 161 89.5117C161 81.9319 135.272 75.7874 103.536 75.7874C46.9066 75.7874 1 90.3919 1 108.407C1 126.423 46.9066 141.028 103.536 141.028C135.272 141.028 161 134.883 161 127.303C161 119.723 135.272 113.579 103.536 113.579C46.9066 113.579 1 128.094 1 146C1 163.906 46.9066 178.421 103.536 178.421C135.272 178.421 161 172.277 161 164.697C161 157.117 135.272 150.972 103.536 150.972C46.9066 150.972 1 165.488 1 183.394C1 201.3 46.9066 215.815 103.536 215.815C135.272 215.815 161 209.67 161 202.091C161 194.511 135.272 188.366 103.536 188.366C46.9066 188.366 1 202.882 1 220.787C1 238.693 46.9066 253.209 103.536 253.209C135.272 253.209 161 247.064 161 239.484C161 231.905 135.272 225.76 103.536 225.76C46.9066 225.76 1 240.364 1 258.38C1 276.395 46.9066 291 103.536 291" stroke="#A1A6B4" stroke-linecap="round"/>
  </symbol>
  <symbol id="icon-spiral-sun" viewBox="0 0 255 255" fill="none" xmlns="http://www.w3.org/2000/svg">
    <path opacity="0.5" d="M127.5 0L127.525 127.375L176.292 9.70532L127.571 127.394L217.656 37.3439L127.606 127.429L245.295 78.7076L127.625 127.475L255 127.5L127.625 127.525L245.295 176.292L127.606 127.571L217.656 217.656L127.571 127.606L176.292 245.295L127.525 127.625L127.5 255L127.475 127.625L78.7076 245.295L127.429 127.606L37.3439 217.656L127.394 127.571L9.70532 176.292L127.375 127.525L0 127.5L127.375 127.475L9.70532 78.7076L127.394 127.429L37.3439 37.3439L127.429 127.394L78.7076 9.70532L127.475 127.375L127.5 0Z" stroke="#A1A6B4"/>
  </symbol>
  <symbol id="icon-done" viewBox="0 0 10 8" fill="none" xmlns="http://www.w3.org/2000/svg">
    <path d="M8.94976 1.08233L4.00002 6.03208L1.17159 3.20365" stroke="currentColor" stroke-width="2"/>
  </symbol>
  <symbol id="icon-youtube" viewBox="0 0 24 24" fill="none" xmlns="http://www.w3.org/2000/svg">
    <g clip-path="url(#clip0_24531_5372)">
    <path d="M21.543 6.498C22 8.28 22 12 22 12C22 12 22 15.72 21.543 17.502C21.289 18.487 20.546 19.262 19.605 19.524C17.896 20 12 20 12 20C12 20 6.107 20 4.395 19.524C3.45 19.258 2.708 18.484 2.457 17.502C2 15.72 2 12 2 12C2 12 2 8.28 2.457 6.498C2.711 5.513 3.454 4.738 4.395 4.476C6.107 4 12 4 12 4C12 4 17.896 4 19.605 4.476C20.55 4.742 21.292 5.516 21.543 6.498ZM10 15.5L16 12L10 8.5V15.5Z" fill="currentColor"/>
    </g>
    <defs>
    <clipPath id="clip0_24531_5372">
    <rect width="24" height="24" fill="white"/>
    </clipPath>
    </defs>
  </symbol>
  <symbol id="icon-vk" viewBox="0 0 24 24" fill="none" xmlns="http://www.w3.org/2000/svg">
    <path fill-rule="evenodd" clip-rule="evenodd" d="M2 8C2 4.68652 4.68652 2 8 2H16C19.3135 2 22 4.68652 22 8V16C22 19.3135 19.3135 22 16 22H8C4.68652 22 2 19.3135 2 16V8ZM17.3438 13.4473C17.7139 13.7778 18.0845 14.1089 18.4121 14.4795C18.5415 14.626 18.6665 14.7754 18.7769 14.9346C18.835 15.0181 18.8892 15.104 18.938 15.1934C19.0425 15.3848 19.0439 15.5859 18.9727 15.7383C18.9058 15.8809 18.7754 15.981 18.606 15.9917L16.4209 15.9912C15.8569 16.0356 15.4077 15.8208 15.0293 15.4575C14.7271 15.1675 14.4468 14.8584 14.1558 14.5586C14.0366 14.4355 13.9116 14.3198 13.7622 14.2285C13.5962 14.1265 13.4419 14.0991 13.3086 14.1455C13.2031 14.1821 13.1104 14.2656 13.0352 14.3955C12.8613 14.6938 12.8213 15.0244 12.8047 15.3564C12.7812 15.8418 12.6255 15.9688 12.1089 15.9917C11.0044 16.0405 9.95654 15.8823 8.98242 15.3574C8.12305 14.8945 7.45801 14.2417 6.87842 13.502C5.75 12.0601 4.88574 10.4775 4.10938 8.84912C3.93457 8.48242 4.0625 8.28662 4.4917 8.27881C5.20459 8.26611 5.91797 8.26758 6.63086 8.27832C6.9209 8.28271 7.11279 8.43896 7.22461 8.69727C7.60986 9.59082 8.08203 10.4409 8.67432 11.229L8.78369 11.3721C8.90918 11.5317 9.04541 11.6826 9.22217 11.7969C9.4751 11.9604 9.66797 11.9062 9.7876 11.6401C9.86377 11.4707 9.89697 11.2896 9.91357 11.1084C9.97021 10.4873 9.97705 9.86621 9.87891 9.24756C9.81787 8.86035 9.58643 8.61035 9.17725 8.53711C8.96826 8.49951 8.99902 8.42676 9.10059 8.31445C9.27637 8.12061 9.44141 8.00049 9.771 8.00049L12.2397 8C12.6284 8.07178 12.7158 8.23633 12.7686 8.60596L12.771 11.1909C12.7661 11.334 12.8472 11.7578 13.1191 11.8511C13.3374 11.9189 13.4814 11.7539 13.6118 11.624C14.2036 11.0317 14.6255 10.333 15.0034 9.60986C15.1699 9.29102 15.314 8.96094 15.4536 8.63037C15.5024 8.51562 15.5635 8.42822 15.6455 8.36816C15.7378 8.30029 15.8564 8.26758 16.0117 8.26953L18.3887 8.27246C18.4585 8.27246 18.5298 8.27295 18.5991 8.28418C18.8101 8.31836 18.9404 8.37939 18.9985 8.4834C19.0503 8.57666 19.0439 8.70508 18.9854 8.87939C18.7979 9.43555 18.4399 9.90283 18.0835 10.3677L18.041 10.4233C17.6436 10.9409 17.2202 11.4399 16.8271 11.96C16.4658 12.4346 16.4941 12.6738 16.9429 13.0864C17.0752 13.208 17.2095 13.3276 17.3438 13.4473Z" fill="currentColor"/>
  </symbol>
  <symbol id="icon-ok" viewBox="0 0 24 24" fill="none" xmlns="http://www.w3.org/2000/svg">
    <g clip-path="url(#clip0_24531_5373)">
    <path d="M10.2338 8.14624C10.2338 9.0928 11.0569 9.86023 12.0724 9.86023C13.088 9.86023 13.9111 9.0928 13.9111 8.14624C13.9111 7.19968 13.088 6.43231 12.0724 6.43231C11.0569 6.43231 10.2338 7.19968 10.2338 8.14624Z" fill="currentColor"/>
    <path fill-rule="evenodd" clip-rule="evenodd" d="M8 2C4.68629 2 2 4.68629 2 8V16C2 19.3137 4.68629 22 8 22H16C19.3137 22 22 19.3137 22 16V8C22 4.68629 19.3137 2 16 2H8ZM7.62436 8.14617C7.62436 5.85633 9.61571 4 12.0724 4C14.5292 4 16.5206 5.85633 16.5206 8.14617C16.5206 10.4361 14.5292 12.2925 12.0724 12.2925C9.61571 12.2925 7.62436 10.4361 7.62436 8.14617ZM16.5472 14.4252C16.4907 14.4674 15.4236 15.2535 13.6427 15.5916L16.3307 18.0748C16.8034 18.5147 16.804 19.2285 16.3321 19.6691C15.8602 20.1097 15.0946 20.1104 14.6216 19.6704L12.012 17.3016L9.64177 19.6552C9.4046 19.8846 9.08805 20 8.77109 20C8.46897 20 8.16645 19.8952 7.93169 19.6842C7.45075 19.252 7.43691 18.5384 7.90062 18.0902L10.4519 15.6048C8.62134 15.2746 7.51009 14.468 7.45295 14.4252C6.93171 14.0357 6.84811 13.3262 7.26591 12.8404C7.6839 12.3547 8.44492 12.2767 8.96616 12.6662C8.97719 12.6744 10.1394 13.4883 12.012 13.4895C13.8847 13.4883 15.0228 12.6744 15.0338 12.6662C15.5551 12.2767 16.3163 12.3547 16.7341 12.8404C17.1519 13.3262 17.0683 14.0357 16.5472 14.4252Z" fill="currentColor"/>
    </g>
    <defs>
    <clipPath id="clip0_24531_5373">
    <rect width="24" height="24" fill="white"/>
    </clipPath>
    </defs>
  </symbol>
  <symbol id="icon-spiral-gorizont" viewBox="0 0 513 114" fill="none" xmlns="http://www.w3.org/2000/svg">
    <path opacity="0.5" d="M377.276 72.88C377.276 33.343 366.862 1.29221 354.015 1.29221C341.169 1.29221 330.754 33.343 330.754 72.88C330.754 95.0376 335.163 113 340.601 113C346.039 113 350.448 95.0376 350.448 72.88C350.448 33.343 340.034 1.29221 327.187 1.29221C314.34 1.29221 303.926 33.343 303.926 72.88C303.926 95.0376 308.334 113 313.773 113C319.211 113 323.619 95.0376 323.619 72.88C323.619 33.343 313.141 1.29221 300.216 1.29221C287.29 1.29221 276.812 33.343 276.812 72.88C276.812 95.0376 281.22 113 286.659 113C292.097 113 296.505 95.0376 296.505 72.88C296.505 33.343 286.091 1.29221 273.244 1.29221C260.398 1.29221 249.984 33.343 249.984 72.88C249.984 95.0376 254.392 113 259.83 113C265.268 113 269.677 95.0376 269.677 72.88C269.677 33.343 259.262 1.29221 246.415 1.29221C233.569 1.29221 223.155 33.343 223.155 72.88C223.155 95.0376 227.564 113 233.001 113C238.439 113 242.848 95.0376 242.848 72.88C242.848 33.343 232.433 1.29221 219.587 1.29221C206.741 1.29221 196.326 33.343 196.326 72.88C196.326 95.0376 200.735 113 206.173 113C211.611 113 216.019 95.0376 216.019 72.88C216.019 33.343 205.541 1.2922 192.616 1.2922C179.691 1.2922 169.212 33.343 169.212 72.88M512 72.88C512 33.343 501.586 1.29221 488.739 1.29221C475.892 1.29221 465.478 33.343 465.478 72.88C465.478 95.0376 469.887 113 475.325 113C480.763 113 485.171 95.0376 485.171 72.88C485.171 33.343 474.757 1.29221 461.911 1.29221C449.064 1.29221 438.649 33.343 438.649 72.88C438.649 95.0376 443.058 113 448.496 113C453.934 113 458.343 95.0376 458.343 72.88C458.343 33.343 447.865 1.29221 434.939 1.29221C422.014 1.29221 411.535 33.343 411.535 72.88C411.535 95.0376 415.944 113 421.382 113C426.821 113 431.228 95.0376 431.228 72.88C431.228 33.343 420.815 1.29221 407.968 1.29221C395.121 1.29221 384.707 33.343 384.707 72.88C384.707 95.0376 389.115 113 394.553 113C399.992 113 404.4 95.0376 404.4 72.88C404.4 33.343 393.986 1.29221 381.139 1.29221C368.292 1.29221 357.878 33.343 357.878 72.88C357.878 95.0376 362.287 113 367.725 113C373.163 113 377.572 95.0376 377.572 72.88C377.572 33.343 367.157 1.29221 354.311 1.29221C341.464 1.29221 331.05 33.343 331.05 72.88C331.05 95.0376 335.458 113 340.897 113C346.334 113 350.743 95.0376 350.743 72.88C350.743 33.343 340.265 1.2922 327.34 1.2922C314.414 1.2922 303.936 33.343 303.936 72.88M81.0642 72.5878C81.0642 33.0508 70.65 1.00001 57.8033 1.00001C44.9567 1.00001 34.5423 33.0508 34.5423 72.5878C34.5423 94.7454 38.9508 112.708 44.389 112.708C49.8271 112.708 54.2357 94.7454 54.2357 72.5878C54.2357 33.0508 43.8214 1.00001 30.9747 1.00001C18.128 1.00001 7.7134 33.0507 7.7134 72.5878C7.7134 94.7454 12.1221 112.708 17.5604 112.708C22.9986 112.708 27.4071 94.7454 27.4071 72.5878C27.4071 33.0508 16.9289 1.00001 4.00348 1C-8.9219 1 -19.4005 33.0507 -19.4005 72.5878C-19.4005 94.7454 -14.9918 112.708 -9.55346 112.708C-4.11512 112.708 0.292723 94.7454 0.292724 72.5878C0.292726 33.0507 -10.1211 1 -22.9679 1C-35.8146 1 -46.2285 33.0507 -46.2285 72.5878C-46.2285 94.7454 -41.8206 112.708 -36.3823 112.708C-30.944 112.708 -26.5353 94.7454 -26.5353 72.5878C-26.5353 33.0507 -36.95 1 -49.7967 1C-62.6434 1 -73.0573 33.0507 -73.0573 72.5878C-73.0573 94.7454 -68.6486 112.708 -63.2111 112.708C-57.7728 112.708 -53.3641 94.7454 -53.3641 72.5878C-53.3641 33.0507 -63.7788 1 -76.6247 1C-89.4714 1 -99.8861 33.0507 -99.8861 72.5878C-99.8861 94.7454 -95.4774 112.708 -90.0391 112.708C-84.6016 112.708 -80.1929 94.7454 -80.1929 72.5878C-80.1929 33.0507 -90.6707 1 -103.596 1C-116.521 0.999999 -127 33.0507 -127 72.5878M215.788 72.5878C215.788 33.0508 205.374 1.00001 192.527 1.00001C179.68 1.00001 169.266 33.0508 169.266 72.5878C169.266 94.7454 173.674 112.708 179.113 112.708C184.551 112.708 188.959 94.7454 188.959 72.5878C188.959 33.0508 178.545 1.00001 165.698 1.00001C152.852 1.00001 142.437 33.0507 142.437 72.5878C142.437 94.7454 146.846 112.708 152.284 112.708C157.722 112.708 162.131 94.7454 162.131 72.5878C162.131 33.0508 151.652 1.00001 138.727 1C125.802 1 115.323 33.0507 115.323 72.5878C115.323 94.7454 119.732 112.708 125.17 112.708C130.608 112.708 135.016 94.7454 135.016 72.5878C135.016 33.0507 124.602 1 111.756 1C98.909 1 88.4951 33.0507 88.4951 72.5878C88.4951 94.7454 92.9029 112.708 98.3413 112.708C103.78 112.708 108.188 94.7454 108.188 72.5878C108.188 33.0507 97.7736 1 84.9269 1C72.0802 1 61.6663 33.0507 61.6663 72.5878C61.6663 94.7454 66.075 112.708 71.5125 112.708C76.9508 112.708 81.3595 94.7454 81.3595 72.5878C81.3595 33.0507 70.9448 1 58.0989 1C45.2521 1 34.8375 33.0507 34.8375 72.5878C34.8375 94.7454 39.2461 112.708 44.6845 112.708C50.122 112.708 54.5307 94.7454 54.5307 72.5878C54.5307 33.0507 44.0529 1 31.1275 1C18.2022 0.999999 7.72359 33.0507 7.72359 72.5878" stroke="#A1A6B4" stroke-linecap="round"/>
  </symbol>
</svg>
