<svg width="13" height="8" viewBox="0 0 13 8" fill="none" xmlns="http://www.w3.org/2000/svg">
<path d="M2.28712 2.66089C1.5506 2.66089 0.947998 3.2635 0.947998 4.00001C0.947998 4.73653 1.5506 5.33914 2.28712 5.33914C3.02364 5.33914 3.62625 4.73653 3.62625 4.00001C3.62625 3.2635 3.02364 2.66089 2.28712 2.66089Z" fill="currentColor"/>
<path d="M11.6609 2.66089C10.9244 2.66089 10.3218 3.2635 10.3218 4.00001C10.3218 4.73653 10.9244 5.33914 11.6609 5.33914C12.3974 5.33914 13 4.73653 13 4.00001C13 3.2635 12.3974 2.66089 11.6609 2.66089Z" fill="currentColor"/>
<path d="M6.97414 2.66089C6.23762 2.66089 5.63501 3.2635 5.63501 4.00001C5.63501 4.73653 6.23762 5.33914 6.97414 5.33914C7.71065 5.33914 8.31326 4.73653 8.31326 4.00001C8.31326 3.2635 7.71065 2.66089 6.97414 2.66089Z" fill="currentColor"/>
</svg>
