<svg width="24" height="20" viewBox="0 0 24 20" fill="none" xmlns="http://www.w3.org/2000/svg">
<mask id="mask0_1_194" style="mask-type:luminance" maskUnits="userSpaceOnUse" x="1" y="1" width="21" height="18">
<path fill-rule="evenodd" clip-rule="evenodd" d="M1.55835 1.31982H21.5583V18.3198H1.55835V1.31982Z" fill="white"/>
</mask>
<g mask="url(#mask0_1_194)">
<path fill-rule="evenodd" clip-rule="evenodd" d="M21.5583 2.6857C21.4533 3.16105 21.3439 3.63544 21.2439 4.1119C20.5976 7.19308 19.9534 10.2747 19.3082 13.3562C19.0304 14.6833 18.7545 16.0108 18.4702 17.3365C18.4332 17.5088 18.3674 17.6798 18.2861 17.8359C18.0688 18.2529 17.7109 18.4102 17.2703 18.2694C17.0695 18.2053 16.8671 18.1114 16.6974 17.986C15.2601 16.9235 13.8301 15.8506 12.3978 14.781C12.346 14.7422 12.2928 14.7053 12.231 14.6608C12.1834 14.7022 12.1385 14.7377 12.0976 14.7776C11.3581 15.4963 10.6185 16.215 9.88035 16.9351C9.66041 17.1496 9.41013 17.2788 9.08119 17.2594C9.10842 16.8445 9.1334 16.443 9.16141 16.0417C9.22007 15.2014 9.28025 14.3612 9.34001 13.521C9.34943 13.3887 9.38327 13.2533 9.36625 13.1248C9.30191 12.6403 9.5689 12.3594 9.89503 12.0629C12.5465 9.65184 15.1852 7.22612 17.8277 4.80471C17.8664 4.76923 17.9166 4.73932 17.9395 4.69502C17.9813 4.61376 18.0068 4.52367 18.0391 4.43725C17.9499 4.4117 17.8512 4.34827 17.7734 4.36846C17.6131 4.40994 17.4523 4.47719 17.3118 4.56669C13.8675 6.76092 10.4258 8.95924 6.98439 11.1582C6.88772 11.22 6.80474 11.2541 6.68064 11.2142C5.22064 10.744 3.75736 10.2845 2.29746 9.8139C2.12083 9.75696 1.94504 9.67186 1.79392 9.56345C1.50986 9.35969 1.47565 9.06138 1.72979 8.8205C1.91594 8.64404 2.14134 8.48745 2.37658 8.3921C3.6066 7.89349 4.84501 7.4165 6.08107 6.93339C10.7767 5.0984 15.4724 3.26335 20.1695 1.43202C20.3189 1.37375 20.4818 1.3354 20.6411 1.32292C21.0637 1.28988 21.3771 1.52312 21.5062 1.94205C21.5214 1.9914 21.5409 2.03947 21.5583 2.08813V2.6857Z" fill="white"/>
</g>
</svg>
