<?xml version="1.0" standalone="no"?>
<!DOCTYPE svg PUBLIC "-//W3C//DTD SVG 20010904//EN"
 "http://www.w3.org/TR/2001/REC-SVG-20010904/DTD/svg10.dtd">
<svg version="1.0" xmlns="http://www.w3.org/2000/svg"
 width="700.000000pt" height="700.000000pt" viewBox="0 0 700.000000 700.000000"
 preserveAspectRatio="xMidYMid meet">
<metadata>
Created by potrace 1.14, written by Peter Selinger 2001-2017
</metadata>
<g transform="translate(0.000000,700.000000) scale(0.100000,-0.100000)"
fill="#000000" stroke="none">
<path d="M0 3500 l0 -3500 3500 0 3500 0 0 3500 0 3500 -3500 0 -3500 0 0
-3500z m4175 2336 c310 -6 1123 -15 1508 -17 271 -2 350 -5 358 -15 18 -21 -8
-82 -54 -126 -23 -22 -82 -59 -131 -83 -84 -41 -293 -108 -374 -121 -19 -3
-44 -8 -56 -10 -11 -3 -39 -7 -61 -10 -22 -3 -46 -7 -54 -10 -8 -2 -42 -7 -75
-10 -34 -2 -79 -7 -101 -9 -100 -12 -470 -20 -903 -20 l-472 0 0 -2142 0
-2143 -190 0 -190 0 0 2144 0 2144 -32 4 c-75 11 -923 16 -1072 6 -99 -6 -152
-13 -189 -24 -11 -3 -29 -7 -40 -9 -45 -5 -189 -46 -269 -76 -220 -81 -370
-185 -486 -340 -108 -144 -164 -399 -125 -572 8 -40 18 -85 20 -102 l4 -30
-37 40 c-66 72 -132 183 -151 257 -13 49 -11 264 3 328 39 181 138 354 289
505 185 185 402 294 735 368 131 29 166 36 287 51 15 2 46 7 68 10 22 3 80 8
130 11 49 3 91 8 93 10 4 4 1247 -3 1567 -9z m-2550 -1698 c108 -42 249 -109
253 -120 2 -4 9 -8 14 -8 19 0 120 -80 175 -137 29 -30 73 -83 97 -117 50 -70
130 -216 122 -223 -3 -3 -39 15 -80 41 -64 38 -219 116 -291 146 -11 5 -81 38
-155 74 -147 71 -229 135 -311 243 -24 32 -47 60 -50 63 -8 7 -79 135 -79 143
0 6 166 -51 305 -105z"/>
</g>
</svg>
